<?xml version="1.0" standalone="no"?>
<!DOCTYPE svg PUBLIC "-//W3C//DTD SVG 20010904//EN"
 "http://www.w3.org/TR/2001/REC-SVG-20010904/DTD/svg10.dtd">
<svg version="1.0" xmlns="http://www.w3.org/2000/svg"
 width="128.000000pt" height="128.000000pt" viewBox="0 0 128.000000 128.000000"
 preserveAspectRatio="xMidYMid meet">
<metadata>
Created by potrace 1.11, written by Peter Selinger 2001-2013
</metadata>
<g transform="translate(0.000000,128.000000) scale(0.100000,-0.100000)"
fill="#000000" stroke="none">
<path d="M602 1178 c-6 -13 -16 -34 -21 -48 -7 -19 -24 -30 -77 -49 -142 -48
-244 -159 -261 -285 -3 -22 -6 -43 -6 -46 -6 -30 21 -127 49 -177 l34 -62 -40
-92 c-22 -51 -40 -95 -40 -99 0 -3 15 -14 34 -22 l34 -17 58 75 c63 80 59 79
138 43 33 -15 60 -18 141 -15 108 4 110 4 169 30 34 15 41 16 50 4 6 -8 33
-42 60 -76 48 -61 49 -61 77 -47 15 8 30 18 32 22 3 5 -13 51 -35 103 -30 72
-37 99 -29 110 44 63 75 156 74 225 -2 144 -133 295 -291 335 -33 8 -45 18
-53 38 -21 58 -32 72 -59 72 -18 0 -31 -8 -38 -22z m75 -45 c13 -38 19 -44 56
-54 171 -44 288 -178 292 -334 1 -63 -33 -162 -72 -207 -13 -15 -11 -27 25
-115 39 -95 40 -98 20 -111 -10 -8 -20 -12 -22 -11 -81 109 -120 150 -134 143
-91 -38 -125 -46 -192 -48 -70 -2 -120 9 -212 48 -13 6 -31 -10 -75 -67 -53
-65 -62 -73 -82 -65 -13 4 -21 14 -18 21 3 6 22 52 42 100 34 79 36 90 22 105
-21 24 -55 94 -62 128 -26 124 12 239 110 327 36 33 125 77 171 84 29 5 37 13
56 55 28 63 55 63 75 1z"/>
<path d="M556 953 c-43 -104 -84 -201 -91 -218 -7 -16 -25 -59 -40 -95 -15
-36 -35 -83 -45 -105 -51 -114 -80 -184 -80 -191 0 -7 44 47 113 140 12 15 32
40 43 54 21 25 22 26 28 5 10 -31 50 -41 156 -41 99 0 145 10 154 34 10 25 23
15 87 -71 78 -105 99 -130 99 -121 0 4 -23 60 -51 124 -65 149 -70 162 -61
162 4 0 16 -23 28 -51 l20 -51 25 39 c28 41 55 116 54 147 0 16 -9 19 -63 20
-50 1 -66 -2 -73 -15 -8 -16 -6 -50 6 -69 3 -6 2 -10 -3 -10 -6 0 -15 15 -21
33 -22 63 -196 467 -201 467 -3 0 -41 -84 -84 -187z m145 -256 l55 -72 -40 -1
c-74 -3 -91 -3 -142 -1 l-52 2 40 50 c22 27 48 60 57 72 9 12 18 22 21 22 3 0
30 -32 61 -72z m28 -116 c19 -12 6 -41 -17 -41 -11 0 -25 6 -31 14 -10 11 -8
17 6 25 22 13 25 13 42 2z m-122 -18 c6 -16 -45 -29 -59 -15 -6 6 -7 15 -3 22
9 14 57 9 62 -7z"/>
<path d="M508 1045 c-54 -20 -121 -69 -158 -115 -33 -42 -68 -127 -66 -163 1
-19 6 -22 44 -20 23 1 42 -2 42 -7 0 -4 -15 -7 -32 -6 -62 5 -66 -5 -37 -92
14 -42 50 -102 62 -102 4 0 13 13 18 29 6 17 18 45 27 63 10 18 17 49 17 68 0
31 -3 35 -24 32 -15 -2 -21 0 -17 7 4 6 14 11 22 11 15 0 15 0 19 45 4 47 25
117 45 152 19 32 19 33 -1 44 -12 6 -18 13 -16 16 3 2 14 0 24 -5 15 -8 24 -5
42 14 13 13 27 24 32 24 5 0 9 5 9 10 0 13 -6 12 -52 -5z"/>
<path d="M733 1042 c15 -10 33 -26 40 -35 10 -14 15 -14 36 -3 l25 14 -30 15
c-16 8 -45 18 -64 22 l-35 6 28 -19z"/>
<path d="M813 994 c-20 -14 -21 -18 -9 -37 22 -35 46 -113 48 -162 2 -25 8
-46 13 -46 31 -4 112 -4 122 -1 24 8 -2 102 -45 164 -30 44 -86 98 -99 97 -5
0 -18 -7 -30 -15z"/>
<path d="M446 513 c-3 -10 -9 -24 -12 -31 -5 -10 1 -10 25 2 20 11 28 21 25
31 -8 20 -30 19 -38 -2z"/>
<path d="M801 516 c-10 -12 -8 -17 9 -26 12 -6 19 -14 16 -17 -3 -3 -13 0 -21
7 -13 11 -21 9 -48 -16 -18 -16 -36 -32 -41 -36 -18 -14 47 3 88 24 22 11 42
21 43 22 5 4 -22 56 -28 56 -4 0 -12 -6 -18 -14z"/>
<path d="M472 476 c-23 -12 -23 -13 15 -29 49 -21 91 -32 78 -21 -5 5 -23 21
-40 36 -26 23 -33 25 -53 14z"/>
<path d="M325 291 c-12 -21 -18 -111 -7 -111 18 0 27 25 35 94 2 21 -18 33
-28 17z"/>
<path d="M473 282 c-15 -25 -15 -102 1 -96 13 5 40 61 39 82 -1 7 11 12 28 12
47 0 33 17 -14 18 -31 1 -46 -4 -54 -16z"/>
<path d="M685 290 c-3 -5 0 -10 7 -10 10 0 10 -2 0 -8 -18 -12 -28 -96 -11
-90 8 2 18 19 24 36 10 36 30 44 22 9 -8 -29 6 -52 27 -44 17 7 22 27 7 27 -5
0 -7 9 -4 20 3 11 9 20 14 20 14 0 10 17 -8 35 -15 16 -18 15 -35 -7 l-19 -23
6 23 c5 16 2 22 -9 22 -8 0 -18 -4 -21 -10z"/>
<path d="M366 254 c-9 -24 -7 -62 4 -69 6 -3 13 2 16 12 3 10 10 27 15 38 7
16 9 12 6 -16 -2 -28 1 -36 12 -34 15 2 28 31 30 68 1 23 -74 25 -83 1z"/>
<path d="M525 234 c-4 -22 -2 -41 4 -47 14 -14 18 -9 29 41 9 37 8 42 -8 42
-13 0 -20 -11 -25 -36z"/>
<path d="M575 231 c-4 -22 -2 -48 3 -58 5 -10 7 -24 5 -30 -3 -7 0 -13 6 -13
10 0 16 30 12 54 -4 17 11 66 19 66 5 0 6 -16 3 -35 -4 -27 -2 -35 10 -35 15
0 27 28 27 68 0 19 -5 22 -39 22 -38 0 -39 -1 -46 -39z"/>
<path d="M791 251 c-15 -27 -14 -35 7 -58 16 -19 20 -20 45 -6 23 12 28 20 25
46 -3 28 -7 32 -35 35 -23 2 -34 -2 -42 -17z m49 -20 c0 -20 -13 -35 -23 -25
-7 8 4 44 14 44 5 0 9 -9 9 -19z"/>
<path d="M887 167 c-11 -29 -9 -34 16 -34 14 0 24 5 24 14 0 7 -6 12 -13 9 -7
-3 -14 3 -16 12 -3 15 -4 15 -11 -1z"/>
<path d="M690 155 c0 -8 -5 -15 -11 -15 -5 0 -7 5 -4 10 3 6 -1 10 -9 10 -9 0
-16 -7 -16 -15 0 -10 11 -15 35 -15 36 0 50 22 20 34 -9 3 -15 0 -15 -9z"/>
<path d="M743 163 c-18 -6 -16 -33 1 -33 8 0 17 4 20 8 7 12 -7 30 -21 25z"/>
<path d="M779 168 c-7 -24 -5 -38 4 -35 7 2 27 -2 45 -9 25 -10 34 -11 36 -1
2 7 7 20 10 30 9 28 -26 16 -37 -13 -4 -11 -6 -11 -6 4 -1 13 -6 17 -21 13
-11 -3 -18 -1 -14 4 3 5 0 9 -5 9 -6 0 -11 -1 -12 -2z"/>
<path d="M617 153 c-12 -11 -8 -23 8 -23 8 0 15 7 15 15 0 16 -12 20 -23 8z"/>
<path d="M937 154 c-9 -10 2 -24 19 -24 8 0 14 7 14 15 0 15 -21 21 -33 9z"/>
</g>
</svg>
